M48
;Layer_Color=9474304
;FILE_FORMAT=2:4
INCH
;TYPE=PLATED
T1F00S00C0.0118
%
T01
X035239Y028426
X035338Y028848
X035212Y029269
X035361Y029541
X035728Y029383
X035651Y028611
X035873Y028416
X035789Y027981
X036080Y027856
X036428Y027852
X036987Y027938
X037283Y027856
X037558Y028836
X037857Y029115
X038102Y028796
X038188Y028245
X038003Y029710
X037617Y029982
X037283Y029958
X037007
X036582Y029836
X035582Y030104
M30
