G04 Layer_Color=32896*
%FSAX24Y24*%
%MOIN*%
G70*
G01*
G75*
%ADD22C,0.0039*%
%ADD23C,0.0079*%
%ADD33C,0.0098*%
G36*
X037527Y027756D02*
X037495D01*
Y027970D01*
X037422Y027756D01*
X037392D01*
X037319Y027967D01*
Y027756D01*
X037287D01*
Y028008D01*
X037331D01*
X037392Y027833D01*
X037395Y027823D01*
X037398Y027815D01*
X037400Y027808D01*
X037402Y027802D01*
X037403Y027798D01*
X037404Y027795D01*
X037405Y027793D01*
X037405Y027792D01*
X037407Y027797D01*
X037408Y027803D01*
X037411Y027809D01*
X037412Y027815D01*
X037414Y027821D01*
X037416Y027825D01*
X037416Y027827D01*
X037417Y027828D01*
X037417Y027829D01*
Y027829D01*
X037477Y028008D01*
X037527D01*
Y027756D01*
D02*
G37*
G36*
X036760Y027832D02*
X036664D01*
Y027863D01*
X036760D01*
Y027832D01*
D02*
G37*
G36*
X036997Y027862D02*
Y027855D01*
X036997Y027848D01*
X036996Y027842D01*
X036996Y027835D01*
X036995Y027830D01*
X036994Y027825D01*
X036993Y027820D01*
X036992Y027816D01*
X036992Y027812D01*
X036991Y027809D01*
X036990Y027806D01*
X036989Y027803D01*
X036988Y027802D01*
X036988Y027800D01*
X036988Y027799D01*
Y027799D01*
X036984Y027791D01*
X036979Y027784D01*
X036973Y027778D01*
X036968Y027773D01*
X036963Y027769D01*
X036959Y027766D01*
X036958Y027765D01*
X036957Y027764D01*
X036956Y027764D01*
X036956D01*
X036947Y027760D01*
X036937Y027757D01*
X036927Y027755D01*
X036918Y027753D01*
X036914Y027753D01*
X036910Y027752D01*
X036907Y027752D01*
X036904D01*
X036901Y027752D01*
X036898D01*
X036885Y027752D01*
X036879Y027753D01*
X036873Y027754D01*
X036868Y027755D01*
X036863Y027756D01*
X036859Y027757D01*
X036855Y027759D01*
X036851Y027760D01*
X036848Y027761D01*
X036845Y027762D01*
X036843Y027763D01*
X036841Y027764D01*
X036840Y027765D01*
X036840Y027766D01*
X036839D01*
X036831Y027771D01*
X036825Y027777D01*
X036820Y027783D01*
X036815Y027789D01*
X036812Y027794D01*
X036810Y027798D01*
X036809Y027799D01*
X036808Y027801D01*
X036808Y027801D01*
Y027802D01*
X036806Y027806D01*
X036805Y027811D01*
X036803Y027821D01*
X036801Y027831D01*
X036800Y027841D01*
X036800Y027845D01*
X036799Y027849D01*
Y027853D01*
X036799Y027856D01*
Y027859D01*
Y027861D01*
Y027862D01*
Y027862D01*
Y028008D01*
X036833D01*
Y027862D01*
Y027854D01*
X036833Y027846D01*
X036834Y027839D01*
X036835Y027833D01*
X036836Y027827D01*
X036838Y027821D01*
X036839Y027817D01*
X036840Y027813D01*
X036842Y027809D01*
X036843Y027806D01*
X036845Y027804D01*
X036846Y027802D01*
X036847Y027800D01*
X036848Y027799D01*
X036848Y027799D01*
X036848Y027798D01*
X036852Y027795D01*
X036855Y027793D01*
X036863Y027789D01*
X036872Y027786D01*
X036880Y027784D01*
X036888Y027783D01*
X036892Y027782D01*
X036895D01*
X036897Y027782D01*
X036901D01*
X036908Y027782D01*
X036915Y027783D01*
X036922Y027784D01*
X036927Y027786D01*
X036931Y027788D01*
X036935Y027789D01*
X036936Y027790D01*
X036937Y027790D01*
X036942Y027794D01*
X036947Y027798D01*
X036950Y027802D01*
X036953Y027805D01*
X036955Y027809D01*
X036957Y027811D01*
X036957Y027813D01*
X036958Y027814D01*
X036959Y027817D01*
X036960Y027821D01*
X036961Y027828D01*
X036962Y027836D01*
X036963Y027844D01*
X036963Y027851D01*
Y027854D01*
X036964Y027857D01*
Y027859D01*
Y027861D01*
Y027862D01*
Y027862D01*
Y028008D01*
X036997D01*
Y027862D01*
D02*
G37*
G36*
X035979Y028008D02*
X035988Y028007D01*
X035996Y028004D01*
X036002Y028002D01*
X036008Y027999D01*
X036010Y027998D01*
X036012Y027996D01*
X036013Y027996D01*
X036014Y027995D01*
X036015Y027994D01*
X036015D01*
X036022Y027988D01*
X036027Y027981D01*
X036032Y027975D01*
X036035Y027968D01*
X036038Y027962D01*
X036040Y027959D01*
X036041Y027957D01*
X036041Y027955D01*
X036042Y027953D01*
X036042Y027953D01*
Y027952D01*
X036044Y027947D01*
X036045Y027941D01*
X036047Y027929D01*
X036049Y027917D01*
X036050Y027906D01*
X036051Y027901D01*
X036051Y027896D01*
Y027891D01*
X036051Y027887D01*
Y027885D01*
Y027882D01*
Y027881D01*
Y027880D01*
X036051Y027867D01*
X036050Y027855D01*
X036049Y027845D01*
X036047Y027834D01*
X036046Y027825D01*
X036043Y027817D01*
X036041Y027809D01*
X036039Y027802D01*
X036037Y027796D01*
X036034Y027791D01*
X036033Y027787D01*
X036031Y027784D01*
X036029Y027781D01*
X036028Y027779D01*
X036027Y027778D01*
X036027Y027778D01*
X036023Y027773D01*
X036018Y027769D01*
X036014Y027766D01*
X036009Y027763D01*
X036004Y027760D01*
X035999Y027758D01*
X035995Y027756D01*
X035990Y027755D01*
X035986Y027754D01*
X035982Y027753D01*
X035978Y027752D01*
X035975Y027752D01*
X035973Y027752D01*
X035969D01*
X035959Y027752D01*
X035950Y027754D01*
X035943Y027756D01*
X035936Y027759D01*
X035931Y027762D01*
X035929Y027763D01*
X035927Y027764D01*
X035926Y027765D01*
X035924Y027766D01*
X035924Y027766D01*
X035924D01*
X035917Y027772D01*
X035912Y027779D01*
X035907Y027786D01*
X035903Y027793D01*
X035900Y027799D01*
X035899Y027802D01*
X035898Y027804D01*
X035898Y027806D01*
X035897Y027807D01*
X035896Y027808D01*
Y027809D01*
X035895Y027814D01*
X035893Y027819D01*
X035891Y027831D01*
X035889Y027843D01*
X035888Y027855D01*
X035888Y027860D01*
X035887Y027865D01*
Y027869D01*
X035887Y027873D01*
Y027876D01*
Y027878D01*
Y027880D01*
Y027880D01*
Y027887D01*
X035887Y027894D01*
Y027900D01*
X035888Y027905D01*
X035888Y027910D01*
X035889Y027916D01*
X035889Y027920D01*
X035890Y027924D01*
X035890Y027928D01*
X035891Y027931D01*
X035891Y027933D01*
X035892Y027936D01*
X035892Y027937D01*
X035892Y027938D01*
X035893Y027939D01*
Y027940D01*
X035895Y027948D01*
X035898Y027955D01*
X035900Y027961D01*
X035903Y027966D01*
X035905Y027971D01*
X035907Y027975D01*
X035908Y027976D01*
X035908Y027977D01*
X035912Y027982D01*
X035916Y027987D01*
X035921Y027991D01*
X035925Y027995D01*
X035928Y027997D01*
X035931Y027999D01*
X035933Y028000D01*
X035934Y028001D01*
X035934D01*
X035940Y028004D01*
X035946Y028005D01*
X035952Y028007D01*
X035957Y028008D01*
X035962Y028009D01*
X035966Y028009D01*
X035969D01*
X035979Y028008D01*
D02*
G37*
G36*
X037232Y027756D02*
X037199D01*
Y027858D01*
X037134D01*
X037125Y027859D01*
X037116Y027859D01*
X037108Y027861D01*
X037101Y027862D01*
X037094Y027863D01*
X037088Y027865D01*
X037082Y027867D01*
X037078Y027870D01*
X037074Y027871D01*
X037070Y027874D01*
X037067Y027875D01*
X037065Y027877D01*
X037063Y027878D01*
X037062Y027879D01*
X037061Y027880D01*
X037061Y027881D01*
X037057Y027885D01*
X037054Y027889D01*
X037051Y027894D01*
X037049Y027898D01*
X037047Y027903D01*
X037045Y027908D01*
X037043Y027916D01*
X037042Y027920D01*
X037041Y027924D01*
X037041Y027927D01*
X037040Y027929D01*
X037040Y027932D01*
Y027933D01*
Y027934D01*
Y027935D01*
X037040Y027942D01*
X037041Y027948D01*
X037043Y027954D01*
X037044Y027959D01*
X037045Y027964D01*
X037047Y027967D01*
X037047Y027969D01*
X037048Y027969D01*
X037051Y027975D01*
X037054Y027980D01*
X037058Y027984D01*
X037061Y027987D01*
X037064Y027990D01*
X037066Y027992D01*
X037067Y027993D01*
X037068Y027993D01*
X037073Y027996D01*
X037078Y027999D01*
X037083Y028001D01*
X037088Y028003D01*
X037093Y028004D01*
X037096Y028005D01*
X037098Y028005D01*
X037099D01*
X037105Y028006D01*
X037111Y028007D01*
X037117Y028007D01*
X037123Y028008D01*
X037129Y028008D01*
X037232D01*
Y027756D01*
D02*
G37*
G36*
X036242Y027875D02*
X036213Y027871D01*
X036210Y027875D01*
X036207Y027878D01*
X036204Y027882D01*
X036201Y027884D01*
X036198Y027886D01*
X036196Y027888D01*
X036195Y027889D01*
X036194Y027889D01*
X036189Y027891D01*
X036185Y027893D01*
X036180Y027894D01*
X036176Y027895D01*
X036172Y027896D01*
X036169Y027896D01*
X036163D01*
X036158Y027895D01*
X036150Y027893D01*
X036144Y027891D01*
X036138Y027888D01*
X036134Y027885D01*
X036130Y027883D01*
X036129Y027881D01*
X036128Y027881D01*
Y027880D01*
X036123Y027874D01*
X036119Y027867D01*
X036117Y027861D01*
X036115Y027854D01*
X036114Y027848D01*
X036113Y027845D01*
Y027843D01*
X036113Y027841D01*
Y027840D01*
Y027839D01*
Y027839D01*
Y027834D01*
X036114Y027829D01*
X036116Y027820D01*
X036118Y027812D01*
X036121Y027806D01*
X036124Y027801D01*
X036126Y027797D01*
X036127Y027796D01*
X036128Y027795D01*
X036128Y027794D01*
X036129Y027794D01*
X036132Y027791D01*
X036134Y027788D01*
X036141Y027784D01*
X036147Y027781D01*
X036153Y027779D01*
X036158Y027778D01*
X036163Y027778D01*
X036164Y027777D01*
X036167D01*
X036173Y027778D01*
X036180Y027779D01*
X036185Y027781D01*
X036189Y027783D01*
X036193Y027785D01*
X036196Y027787D01*
X036198Y027788D01*
X036199Y027789D01*
X036203Y027794D01*
X036207Y027799D01*
X036209Y027806D01*
X036212Y027811D01*
X036213Y027817D01*
X036214Y027821D01*
X036215Y027822D01*
X036215Y027823D01*
Y027824D01*
Y027825D01*
X036247Y027822D01*
X036247Y027816D01*
X036245Y027811D01*
X036242Y027801D01*
X036238Y027792D01*
X036236Y027788D01*
X036234Y027784D01*
X036232Y027781D01*
X036230Y027778D01*
X036228Y027776D01*
X036226Y027774D01*
X036225Y027773D01*
X036224Y027771D01*
X036223Y027771D01*
X036223Y027771D01*
X036219Y027767D01*
X036214Y027764D01*
X036209Y027762D01*
X036205Y027760D01*
X036196Y027756D01*
X036187Y027754D01*
X036183Y027753D01*
X036179Y027753D01*
X036175Y027752D01*
X036172Y027752D01*
X036170Y027752D01*
X036167D01*
X036159Y027752D01*
X036152Y027753D01*
X036145Y027755D01*
X036138Y027756D01*
X036133Y027759D01*
X036127Y027762D01*
X036122Y027764D01*
X036118Y027767D01*
X036114Y027770D01*
X036110Y027772D01*
X036107Y027775D01*
X036105Y027778D01*
X036103Y027779D01*
X036101Y027781D01*
X036101Y027782D01*
X036100Y027782D01*
X036097Y027787D01*
X036094Y027792D01*
X036091Y027797D01*
X036089Y027802D01*
X036085Y027812D01*
X036083Y027821D01*
X036082Y027825D01*
X036081Y027829D01*
X036081Y027833D01*
X036081Y027835D01*
X036080Y027838D01*
Y027840D01*
Y027841D01*
Y027841D01*
X036081Y027848D01*
X036081Y027854D01*
X036082Y027860D01*
X036084Y027866D01*
X036086Y027871D01*
X036088Y027876D01*
X036090Y027880D01*
X036092Y027884D01*
X036094Y027888D01*
X036096Y027891D01*
X036098Y027894D01*
X036100Y027896D01*
X036101Y027898D01*
X036102Y027899D01*
X036103Y027900D01*
X036103Y027900D01*
X036108Y027904D01*
X036112Y027908D01*
X036117Y027911D01*
X036121Y027913D01*
X036126Y027916D01*
X036131Y027918D01*
X036140Y027920D01*
X036144Y027921D01*
X036147Y027922D01*
X036150Y027922D01*
X036153Y027923D01*
X036156Y027923D01*
X036164D01*
X036168Y027922D01*
X036177Y027921D01*
X036185Y027918D01*
X036192Y027915D01*
X036198Y027912D01*
X036200Y027911D01*
X036203Y027910D01*
X036204Y027909D01*
X036205Y027908D01*
X036206Y027908D01*
X036207Y027907D01*
X036193Y027975D01*
X036092D01*
Y028005D01*
X036217D01*
X036242Y027875D01*
D02*
G37*
G36*
X036366Y028009D02*
X036373Y028008D01*
X036378Y028007D01*
X036384Y028006D01*
X036389Y028005D01*
X036394Y028003D01*
X036398Y028001D01*
X036402Y028000D01*
X036406Y027998D01*
X036409Y027996D01*
X036411Y027995D01*
X036413Y027993D01*
X036415Y027992D01*
X036416Y027991D01*
X036417Y027991D01*
X036417Y027990D01*
X036421Y027987D01*
X036424Y027982D01*
X036427Y027978D01*
X036430Y027974D01*
X036434Y027965D01*
X036437Y027956D01*
X036438Y027952D01*
X036439Y027948D01*
X036440Y027945D01*
X036441Y027942D01*
X036441Y027940D01*
Y027938D01*
X036442Y027937D01*
Y027936D01*
X036410Y027933D01*
X036409Y027941D01*
X036408Y027949D01*
X036406Y027955D01*
X036403Y027960D01*
X036401Y027965D01*
X036399Y027968D01*
X036397Y027969D01*
X036397Y027970D01*
X036391Y027975D01*
X036385Y027978D01*
X036379Y027980D01*
X036374Y027982D01*
X036369Y027983D01*
X036364Y027983D01*
X036363Y027984D01*
X036361D01*
X036353Y027983D01*
X036346Y027982D01*
X036340Y027980D01*
X036335Y027977D01*
X036331Y027975D01*
X036328Y027973D01*
X036327Y027972D01*
X036326Y027971D01*
X036322Y027966D01*
X036318Y027961D01*
X036316Y027956D01*
X036314Y027950D01*
X036313Y027946D01*
X036313Y027943D01*
X036312Y027941D01*
Y027940D01*
Y027940D01*
X036313Y027933D01*
X036315Y027926D01*
X036317Y027920D01*
X036320Y027914D01*
X036323Y027910D01*
X036325Y027906D01*
X036326Y027904D01*
X036327Y027903D01*
X036327Y027903D01*
Y027902D01*
X036330Y027898D01*
X036334Y027894D01*
X036338Y027890D01*
X036342Y027886D01*
X036351Y027877D01*
X036361Y027868D01*
X036365Y027864D01*
X036369Y027861D01*
X036373Y027857D01*
X036377Y027854D01*
X036379Y027852D01*
X036381Y027850D01*
X036383Y027849D01*
X036383Y027849D01*
X036392Y027841D01*
X036401Y027834D01*
X036407Y027827D01*
X036413Y027822D01*
X036418Y027817D01*
X036421Y027814D01*
X036423Y027812D01*
X036423Y027811D01*
Y027811D01*
X036429Y027805D01*
X036433Y027799D01*
X036436Y027793D01*
X036439Y027788D01*
X036441Y027784D01*
X036443Y027780D01*
X036444Y027778D01*
X036444Y027778D01*
Y027778D01*
X036445Y027774D01*
X036446Y027770D01*
X036447Y027766D01*
X036447Y027763D01*
X036448Y027760D01*
Y027758D01*
Y027756D01*
Y027756D01*
X036280D01*
Y027786D01*
X036405D01*
X036400Y027792D01*
X036398Y027795D01*
X036396Y027797D01*
X036394Y027799D01*
X036393Y027801D01*
X036392Y027802D01*
X036391Y027802D01*
X036390Y027804D01*
X036387Y027806D01*
X036382Y027811D01*
X036377Y027816D01*
X036370Y027822D01*
X036365Y027826D01*
X036362Y027829D01*
X036360Y027831D01*
X036358Y027832D01*
X036357Y027833D01*
X036356Y027834D01*
X036355Y027834D01*
X036350Y027839D01*
X036344Y027844D01*
X036339Y027849D01*
X036334Y027853D01*
X036330Y027857D01*
X036326Y027861D01*
X036322Y027864D01*
X036319Y027867D01*
X036316Y027870D01*
X036314Y027872D01*
X036312Y027874D01*
X036311Y027875D01*
X036309Y027878D01*
X036308Y027878D01*
X036303Y027885D01*
X036299Y027890D01*
X036295Y027896D01*
X036292Y027900D01*
X036290Y027904D01*
X036288Y027907D01*
X036288Y027909D01*
X036287Y027909D01*
X036285Y027915D01*
X036284Y027920D01*
X036282Y027925D01*
X036282Y027930D01*
X036281Y027934D01*
X036281Y027937D01*
Y027938D01*
Y027939D01*
X036281Y027945D01*
X036282Y027950D01*
X036283Y027955D01*
X036284Y027959D01*
X036288Y027968D01*
X036291Y027975D01*
X036294Y027978D01*
X036295Y027981D01*
X036297Y027983D01*
X036299Y027985D01*
X036300Y027987D01*
X036301Y027988D01*
X036302Y027988D01*
X036302Y027989D01*
X036306Y027992D01*
X036311Y027996D01*
X036315Y027998D01*
X036320Y028000D01*
X036330Y028004D01*
X036339Y028007D01*
X036343Y028007D01*
X036347Y028008D01*
X036351Y028008D01*
X036354Y028009D01*
X036356Y028009D01*
X036360D01*
X036366Y028009D01*
D02*
G37*
G36*
X036566D02*
X036572Y028008D01*
X036578Y028007D01*
X036583Y028005D01*
X036593Y028001D01*
X036597Y028000D01*
X036601Y027997D01*
X036604Y027995D01*
X036607Y027993D01*
X036610Y027991D01*
X036612Y027989D01*
X036614Y027988D01*
X036615Y027987D01*
X036616Y027986D01*
X036616Y027985D01*
X036620Y027981D01*
X036624Y027976D01*
X036627Y027971D01*
X036630Y027966D01*
X036632Y027961D01*
X036634Y027956D01*
X036636Y027946D01*
X036637Y027941D01*
X036638Y027937D01*
X036638Y027933D01*
X036639Y027930D01*
X036639Y027928D01*
Y027926D01*
Y027924D01*
Y027924D01*
X036639Y027917D01*
X036638Y027911D01*
X036637Y027905D01*
X036636Y027899D01*
X036634Y027894D01*
X036632Y027889D01*
X036630Y027884D01*
X036628Y027880D01*
X036626Y027877D01*
X036624Y027873D01*
X036623Y027871D01*
X036621Y027868D01*
X036619Y027866D01*
X036619Y027865D01*
X036618Y027865D01*
X036618Y027864D01*
X036614Y027860D01*
X036609Y027857D01*
X036605Y027854D01*
X036600Y027851D01*
X036596Y027849D01*
X036591Y027847D01*
X036583Y027845D01*
X036579Y027843D01*
X036576Y027843D01*
X036573Y027842D01*
X036570Y027842D01*
X036568Y027842D01*
X036565D01*
X036558Y027842D01*
X036551Y027843D01*
X036545Y027845D01*
X036540Y027846D01*
X036536Y027848D01*
X036533Y027849D01*
X036530Y027850D01*
X036530Y027851D01*
X036524Y027854D01*
X036519Y027858D01*
X036514Y027862D01*
X036511Y027866D01*
X036508Y027870D01*
X036506Y027872D01*
X036505Y027874D01*
X036504Y027875D01*
Y027872D01*
Y027870D01*
Y027869D01*
Y027869D01*
X036505Y027861D01*
X036505Y027854D01*
X036506Y027848D01*
X036506Y027842D01*
X036508Y027838D01*
X036508Y027834D01*
X036509Y027833D01*
Y027831D01*
X036509Y027831D01*
Y027831D01*
X036511Y027824D01*
X036513Y027818D01*
X036514Y027813D01*
X036516Y027809D01*
X036518Y027806D01*
X036519Y027803D01*
X036520Y027801D01*
X036520Y027801D01*
X036523Y027797D01*
X036526Y027794D01*
X036529Y027791D01*
X036532Y027788D01*
X036534Y027786D01*
X036536Y027784D01*
X036538Y027784D01*
X036538Y027783D01*
X036542Y027781D01*
X036547Y027780D01*
X036551Y027779D01*
X036555Y027778D01*
X036558Y027778D01*
X036560Y027777D01*
X036563D01*
X036569Y027778D01*
X036574Y027779D01*
X036579Y027780D01*
X036583Y027782D01*
X036586Y027783D01*
X036588Y027785D01*
X036590Y027786D01*
X036590Y027786D01*
X036594Y027790D01*
X036597Y027795D01*
X036599Y027800D01*
X036601Y027805D01*
X036603Y027810D01*
X036604Y027814D01*
X036604Y027815D01*
Y027816D01*
X036604Y027817D01*
Y027817D01*
X036634Y027814D01*
X036632Y027804D01*
X036629Y027795D01*
X036626Y027787D01*
X036622Y027780D01*
X036618Y027775D01*
X036616Y027773D01*
X036615Y027771D01*
X036614Y027770D01*
X036613Y027769D01*
X036612Y027768D01*
X036612Y027768D01*
X036608Y027765D01*
X036604Y027763D01*
X036596Y027759D01*
X036588Y027756D01*
X036581Y027754D01*
X036574Y027752D01*
X036571Y027752D01*
X036568D01*
X036567Y027752D01*
X036564D01*
X036553Y027752D01*
X036544Y027754D01*
X036536Y027756D01*
X036529Y027759D01*
X036526Y027760D01*
X036523Y027762D01*
X036521Y027763D01*
X036519Y027764D01*
X036517Y027765D01*
X036516Y027766D01*
X036516Y027767D01*
X036515D01*
X036508Y027773D01*
X036501Y027780D01*
X036496Y027787D01*
X036492Y027794D01*
X036488Y027800D01*
X036487Y027803D01*
X036486Y027805D01*
X036485Y027807D01*
X036484Y027809D01*
X036484Y027810D01*
Y027810D01*
X036482Y027815D01*
X036480Y027822D01*
X036478Y027834D01*
X036476Y027847D01*
X036475Y027859D01*
X036474Y027865D01*
X036474Y027870D01*
Y027875D01*
X036473Y027879D01*
Y027882D01*
Y027885D01*
Y027887D01*
Y027887D01*
Y027896D01*
X036474Y027904D01*
X036474Y027911D01*
X036475Y027918D01*
X036476Y027924D01*
X036477Y027930D01*
X036478Y027935D01*
X036479Y027940D01*
X036480Y027944D01*
X036481Y027948D01*
X036482Y027951D01*
X036482Y027953D01*
X036483Y027955D01*
X036484Y027957D01*
X036484Y027957D01*
Y027958D01*
X036489Y027966D01*
X036493Y027974D01*
X036499Y027981D01*
X036504Y027986D01*
X036508Y027990D01*
X036512Y027993D01*
X036513Y027994D01*
X036514Y027995D01*
X036515Y027996D01*
X036515D01*
X036523Y028000D01*
X036530Y028003D01*
X036538Y028006D01*
X036545Y028007D01*
X036551Y028008D01*
X036554Y028009D01*
X036556D01*
X036557Y028009D01*
X036560D01*
X036566Y028009D01*
D02*
G37*
%LPC*%
G36*
X035972Y027984D02*
X035970D01*
X035966Y027983D01*
X035962Y027983D01*
X035958Y027982D01*
X035955Y027980D01*
X035948Y027977D01*
X035943Y027973D01*
X035939Y027969D01*
X035936Y027966D01*
X035935Y027965D01*
X035934Y027964D01*
X035933Y027963D01*
Y027963D01*
X035931Y027958D01*
X035928Y027953D01*
X035926Y027948D01*
X035925Y027941D01*
X035923Y027935D01*
X035922Y027928D01*
X035920Y027914D01*
X035920Y027907D01*
X035919Y027901D01*
X035919Y027895D01*
Y027890D01*
X035919Y027886D01*
Y027883D01*
Y027881D01*
Y027881D01*
Y027880D01*
Y027869D01*
X035919Y027859D01*
X035920Y027850D01*
X035921Y027841D01*
X035922Y027834D01*
X035923Y027827D01*
X035925Y027821D01*
X035926Y027815D01*
X035927Y027811D01*
X035929Y027807D01*
X035930Y027804D01*
X035931Y027802D01*
X035932Y027800D01*
X035933Y027799D01*
X035934Y027798D01*
Y027798D01*
X035936Y027794D01*
X035939Y027791D01*
X035942Y027788D01*
X035945Y027786D01*
X035951Y027782D01*
X035957Y027780D01*
X035962Y027778D01*
X035966Y027778D01*
X035967Y027777D01*
X035969D01*
X035973Y027778D01*
X035977Y027778D01*
X035984Y027780D01*
X035990Y027784D01*
X035995Y027787D01*
X035999Y027791D01*
X036003Y027794D01*
X036005Y027797D01*
X036005Y027797D01*
Y027798D01*
X036008Y027802D01*
X036010Y027807D01*
X036012Y027813D01*
X036014Y027819D01*
X036015Y027826D01*
X036016Y027833D01*
X036018Y027847D01*
X036019Y027853D01*
X036019Y027859D01*
X036019Y027865D01*
Y027870D01*
X036020Y027874D01*
Y027878D01*
Y027879D01*
Y027880D01*
X036019Y027891D01*
X036019Y027902D01*
X036018Y027911D01*
X036017Y027920D01*
X036016Y027928D01*
X036015Y027934D01*
X036013Y027941D01*
X036012Y027946D01*
X036010Y027951D01*
X036009Y027955D01*
X036008Y027958D01*
X036007Y027961D01*
X036006Y027963D01*
X036005Y027964D01*
X036004Y027965D01*
Y027965D01*
X036002Y027969D01*
X035999Y027972D01*
X035996Y027974D01*
X035993Y027976D01*
X035987Y027979D01*
X035982Y027981D01*
X035977Y027982D01*
X035973Y027983D01*
X035972Y027984D01*
D02*
G37*
G36*
X037199Y027978D02*
X037127D01*
X037120Y027978D01*
X037115Y027977D01*
X037110Y027977D01*
X037107Y027976D01*
X037105Y027976D01*
X037104Y027976D01*
X037103D01*
X037099Y027974D01*
X037095Y027972D01*
X037091Y027969D01*
X037088Y027967D01*
X037086Y027964D01*
X037084Y027962D01*
X037083Y027961D01*
X037082Y027961D01*
X037080Y027956D01*
X037078Y027952D01*
X037076Y027947D01*
X037075Y027943D01*
X037075Y027940D01*
X037074Y027936D01*
Y027934D01*
Y027934D01*
Y027934D01*
X037075Y027926D01*
X037076Y027920D01*
X037079Y027914D01*
X037081Y027909D01*
X037084Y027905D01*
X037086Y027902D01*
X037087Y027901D01*
X037088Y027900D01*
X037091Y027898D01*
X037094Y027896D01*
X037101Y027893D01*
X037109Y027891D01*
X037116Y027890D01*
X037123Y027889D01*
X037126Y027889D01*
X037129D01*
X037131Y027888D01*
X037199D01*
Y027978D01*
D02*
G37*
G36*
X036558Y027984D02*
X036552D01*
X036549Y027983D01*
X036542Y027981D01*
X036536Y027978D01*
X036531Y027976D01*
X036527Y027973D01*
X036524Y027970D01*
X036523Y027969D01*
X036522Y027968D01*
Y027968D01*
X036517Y027962D01*
X036513Y027955D01*
X036511Y027948D01*
X036509Y027941D01*
X036508Y027935D01*
X036508Y027932D01*
Y027930D01*
X036508Y027928D01*
Y027926D01*
Y027926D01*
Y027925D01*
X036508Y027916D01*
X036510Y027908D01*
X036512Y027901D01*
X036514Y027895D01*
X036517Y027890D01*
X036520Y027887D01*
X036521Y027885D01*
X036522Y027884D01*
X036527Y027879D01*
X036533Y027875D01*
X036539Y027873D01*
X036545Y027871D01*
X036549Y027870D01*
X036553Y027869D01*
X036555Y027869D01*
X036557D01*
X036565Y027870D01*
X036572Y027871D01*
X036578Y027874D01*
X036583Y027877D01*
X036587Y027879D01*
X036591Y027882D01*
X036592Y027883D01*
X036593Y027884D01*
X036598Y027890D01*
X036601Y027896D01*
X036604Y027903D01*
X036605Y027909D01*
X036607Y027914D01*
X036607Y027917D01*
Y027919D01*
X036607Y027921D01*
Y027922D01*
Y027922D01*
Y027923D01*
X036607Y027932D01*
X036605Y027941D01*
X036603Y027949D01*
X036600Y027955D01*
X036597Y027960D01*
X036595Y027964D01*
X036594Y027965D01*
X036593Y027966D01*
X036592Y027966D01*
Y027966D01*
X036589Y027969D01*
X036587Y027972D01*
X036580Y027976D01*
X036574Y027980D01*
X036568Y027981D01*
X036564Y027983D01*
X036560Y027983D01*
X036558Y027984D01*
D02*
G37*
%LPD*%
D22*
X038043Y030226D02*
X037977D01*
X038010D01*
Y030029D01*
X038043D01*
X037977D01*
X037879D02*
Y030226D01*
X037813Y030160D01*
X037747Y030226D01*
Y030029D01*
X037682Y030226D02*
Y030062D01*
X037649Y030029D01*
X037583D01*
X037551Y030062D01*
Y030226D01*
X037288Y030029D02*
Y030226D01*
X037223Y030160D01*
X037157Y030226D01*
Y030029D01*
X037059D02*
X036993D01*
X036960Y030062D01*
Y030127D01*
X036993Y030160D01*
X037059D01*
X037091Y030127D01*
Y030062D01*
X037059Y030029D01*
X036763Y030226D02*
Y030029D01*
X036862D01*
X036895Y030062D01*
Y030127D01*
X036862Y030160D01*
X036763D01*
X036698D02*
Y030062D01*
X036665Y030029D01*
X036567D01*
Y030160D01*
X036501Y030029D02*
X036435D01*
X036468D01*
Y030226D01*
X036501D01*
X036239Y030029D02*
X036304D01*
X036337Y030062D01*
Y030127D01*
X036304Y030160D01*
X036239D01*
X036206Y030127D01*
Y030094D01*
X036337D01*
X035943Y030160D02*
X035878Y030029D01*
X035812Y030160D01*
X035747Y030029D02*
X035681D01*
X035714D01*
Y030226D01*
X035747Y030193D01*
X035583Y030029D02*
Y030062D01*
X035550D01*
Y030029D01*
X035583D01*
X035419D02*
X035353D01*
X035386D01*
Y030226D01*
X035419Y030193D01*
D23*
X036031Y029619D02*
X036109D01*
X036031Y029541D02*
Y029619D01*
Y028281D02*
Y028359D01*
Y028281D02*
X036109D01*
X037291D02*
X037369D01*
Y028359D01*
X037291Y029619D02*
X037369D01*
Y029541D02*
Y029619D01*
D33*
X036139Y029875D02*
G03*
X036139Y029875I-000049J000000D01*
G01*
M02*
