G04 Layer_Physical_Order=2*
G04 Layer_Color=16711680*
%FSAX24Y24*%
%MOIN*%
G70*
G01*
G75*
%ADD14C,0.0067*%
%ADD15C,0.0236*%
%ADD16O,0.0079X0.0276*%
%ADD17O,0.0079X0.0315*%
%ADD18O,0.0276X0.0079*%
%ADD19O,0.0315X0.0079*%
%ADD20R,0.0606X0.0669*%
D14*
X038399Y028673D02*
Y029806D01*
X038293Y028717D02*
Y029718D01*
X038181Y028606D02*
X038293Y028717D01*
X038225Y028499D02*
X038399Y028673D01*
X038144Y028499D02*
X038225D01*
X037548Y027903D02*
X038144Y028499D01*
X038064Y028606D02*
X038181D01*
X037487Y028029D02*
X038064Y028606D01*
X037952Y028796D02*
X038102D01*
X037348Y028192D02*
X037952Y028796D01*
X037100Y028192D02*
X037348D01*
X037407Y028029D02*
X037487D01*
X037294Y027903D02*
X037548D01*
X036983Y029926D02*
X037007Y029950D01*
Y029958D01*
X037287Y030255D02*
X037950D01*
X037287Y030255D02*
X037287Y030255D01*
X035733Y030255D02*
X037287D01*
X037243Y030149D02*
X037283Y030109D01*
X035937Y030149D02*
X037243D01*
X037283Y029958D02*
Y030109D01*
X036481Y029936D02*
X036582Y029836D01*
X036566D02*
X036582D01*
X036867Y030043D02*
X036983Y029926D01*
X035582Y030104D02*
X035733Y030255D01*
X037857Y028865D02*
Y029115D01*
X037637Y028645D02*
X037857Y028865D01*
X037271Y028714D02*
X037410D01*
X037479Y028645D01*
X037637D01*
X037271Y029029D02*
X037483D01*
X037948Y029493D01*
X038157D01*
X038289Y029625D01*
X037480Y029186D02*
X038003Y029710D01*
X037271Y029186D02*
X037480D01*
X037950Y030255D02*
X038399Y029806D01*
X035728Y029383D02*
X035759D01*
X035917Y029541D01*
X036306D01*
X035212Y029279D02*
X035221Y029288D01*
X036251Y028359D02*
X036306D01*
X035873Y028470D02*
Y028627D01*
Y028470D02*
X035897Y028493D01*
X036543Y029859D02*
X036566Y029836D01*
X036558Y029844D02*
X036566Y029836D01*
X035127Y029381D02*
Y029619D01*
X035361Y029541D02*
Y029541D01*
X035127Y029381D02*
X035221Y029288D01*
X035273Y029331D02*
X035274Y029330D01*
X035449D01*
X036566Y029836D02*
X036566Y029836D01*
X035960Y028714D02*
X036129D01*
X035873Y028627D02*
X035960Y028714D01*
X037271Y028871D02*
X037566D01*
X036223Y028331D02*
X036251Y028359D01*
X037033Y027938D02*
X037050Y027921D01*
X035001Y028958D02*
X035102Y029058D01*
X035001Y028787D02*
Y028958D01*
Y028787D02*
X035151Y028637D01*
X035239Y027907D02*
X035501Y027645D01*
X035897Y028493D02*
X036059Y028331D01*
X036223D01*
X037283Y027856D02*
Y027891D01*
X035151Y028637D02*
X035327D01*
X035001Y028958D02*
Y029671D01*
X035212Y029269D02*
Y029279D01*
Y029269D02*
X035273Y029331D01*
X035102Y029058D02*
X035365D01*
X035338Y028848D02*
Y028848D01*
X035651Y028340D02*
X035786Y028205D01*
X035239Y027907D02*
Y028426D01*
X035327Y028637D02*
X035450Y028514D01*
X035651Y028340D02*
Y028611D01*
X037094Y028170D02*
Y028192D01*
X037100Y028164D02*
Y028192D01*
X037094D02*
Y028359D01*
X037085Y028149D02*
X037100Y028164D01*
X037094Y028192D02*
X037100D01*
X037283Y027891D02*
X037294Y027903D01*
X037195Y028066D02*
X037370D01*
X037407Y028029D01*
X037050Y027921D02*
X037195Y028066D01*
X036987Y027938D02*
X037033D01*
X037617Y029982D02*
X038029D01*
X035873Y028416D02*
Y028470D01*
X035786Y028205D02*
X036204D01*
X035361Y029541D02*
X035385Y029564D01*
X037588Y027645D02*
X038188Y028245D01*
X036236Y027645D02*
X036428Y027837D01*
X035450Y027966D02*
X035645Y027771D01*
X035450Y027966D02*
Y028514D01*
X035645Y027771D02*
X035996D01*
X036428Y027837D02*
Y027852D01*
X035501Y027645D02*
X036236D01*
X035996Y027771D02*
X036080Y027856D01*
X036204Y028205D02*
X036260Y028149D01*
X037085D01*
X036983Y027645D02*
X037588D01*
X036585Y028043D02*
X036983Y027645D01*
X035789Y027981D02*
X035854Y028046D01*
X036160D02*
X036163Y028043D01*
X035854Y028046D02*
X036160D01*
X036163Y028043D02*
X036585D01*
X038029Y029982D02*
X038293Y029718D01*
X035981Y030043D02*
X036867D01*
X035385Y029564D02*
Y029663D01*
X035422Y029700D01*
X036025Y029936D02*
X036481D01*
X035422Y029700D02*
X035789D01*
X036025Y029936D01*
X035745Y029806D02*
X035981Y030043D01*
X035701Y029913D02*
X035937Y030149D01*
X035242Y029913D02*
X035701D01*
X035314Y029806D02*
X035745D01*
X035001Y029671D02*
X035242Y029913D01*
X035127Y029619D02*
X035314Y029806D01*
X035449Y029330D02*
X035588Y029190D01*
X035338Y028848D02*
X035484Y028994D01*
X035544Y029084D02*
X035907D01*
X035588Y029190D02*
X035863D01*
X035899Y029226D01*
Y029233D01*
X035500Y028978D02*
X035959D01*
X035484Y028994D02*
X035484D01*
X035500Y028978D01*
X035959D02*
X036010Y029029D01*
X036129D01*
X036010Y029344D02*
X036109D01*
X035899Y029233D02*
X036010Y029344D01*
X035907Y029084D02*
X036010Y029186D01*
X036129D01*
X035365Y029058D02*
X035407Y029100D01*
X035528D01*
X035544Y029084D01*
D15*
X038102Y028796D02*
D03*
X037007Y029958D02*
D03*
X036582Y029836D02*
D03*
X037283Y029958D02*
D03*
X037857Y029115D02*
D03*
X037558Y028836D02*
D03*
X035728Y029383D02*
D03*
X038003Y029710D02*
D03*
X037617Y029982D02*
D03*
X035361Y029541D02*
D03*
X037283Y027856D02*
D03*
X036987Y027938D02*
D03*
X035212Y029269D02*
D03*
X035338Y028848D02*
D03*
X035789Y027981D02*
D03*
X035239Y028426D02*
D03*
X035651Y028611D02*
D03*
X035873Y028416D02*
D03*
X038188Y028245D02*
D03*
X036428Y027852D02*
D03*
X036080Y027856D02*
D03*
X035582Y030104D02*
D03*
D16*
X036306Y029541D02*
D03*
X037094D02*
D03*
Y028359D02*
D03*
X036306D02*
D03*
D17*
X036464Y029521D02*
D03*
X036621D02*
D03*
X036779D02*
D03*
X036936D02*
D03*
Y028379D02*
D03*
X036779D02*
D03*
X036621D02*
D03*
X036464D02*
D03*
D18*
X037291Y029344D02*
D03*
Y028556D02*
D03*
X036109D02*
D03*
Y029344D02*
D03*
D19*
X037271Y029186D02*
D03*
Y029029D02*
D03*
Y028871D02*
D03*
Y028714D02*
D03*
X036129D02*
D03*
Y028871D02*
D03*
Y029029D02*
D03*
Y029186D02*
D03*
D20*
X036700Y028950D02*
D03*
M02*
