G04 Layer_Color=65535*
%FSAX24Y24*%
%MOIN*%
G70*
G01*
G75*
%ADD21C,0.0059*%
%ADD22C,0.0039*%
%ADD23C,0.0079*%
G36*
X035678Y029393D02*
X035595D01*
Y029170D01*
X035562D01*
Y029393D01*
X035479D01*
Y029422D01*
X035678D01*
Y029393D01*
D02*
G37*
G36*
X035442Y029277D02*
Y029276D01*
Y029275D01*
Y029273D01*
Y029271D01*
X035442Y029267D01*
Y029264D01*
X035441Y029259D01*
X035441Y029255D01*
X035440Y029245D01*
X035438Y029235D01*
X035436Y029225D01*
X035435Y029220D01*
X035433Y029216D01*
Y029216D01*
X035433Y029215D01*
X035432Y029214D01*
X035432Y029212D01*
X035429Y029208D01*
X035426Y029203D01*
X035422Y029197D01*
X035417Y029192D01*
X035410Y029185D01*
X035402Y029180D01*
X035402D01*
X035401Y029179D01*
X035400Y029179D01*
X035398Y029178D01*
X035396Y029177D01*
X035393Y029176D01*
X035390Y029174D01*
X035386Y029173D01*
X035382Y029172D01*
X035378Y029170D01*
X035373Y029169D01*
X035368Y029168D01*
X035362Y029168D01*
X035357Y029167D01*
X035343Y029166D01*
X035340D01*
X035338Y029166D01*
X035335D01*
X035331Y029167D01*
X035327Y029167D01*
X035323Y029168D01*
X035314Y029169D01*
X035304Y029171D01*
X035295Y029174D01*
X035286Y029178D01*
X035285D01*
X035285Y029179D01*
X035283Y029180D01*
X035282Y029180D01*
X035278Y029183D01*
X035273Y029187D01*
X035268Y029192D01*
X035263Y029198D01*
X035258Y029205D01*
X035254Y029213D01*
Y029214D01*
X035253Y029215D01*
X035253Y029216D01*
X035252Y029218D01*
X035251Y029220D01*
X035251Y029223D01*
X035250Y029226D01*
X035249Y029230D01*
X035248Y029235D01*
X035247Y029239D01*
X035246Y029244D01*
X035246Y029250D01*
X035245Y029256D01*
X035244Y029263D01*
X035244Y029269D01*
Y029277D01*
Y029422D01*
X035278D01*
Y029277D01*
Y029276D01*
Y029275D01*
Y029273D01*
Y029271D01*
X035278Y029269D01*
Y029265D01*
X035278Y029259D01*
X035279Y029251D01*
X035280Y029243D01*
X035282Y029235D01*
X035282Y029232D01*
X035283Y029228D01*
X035284Y029228D01*
X035285Y029226D01*
X035286Y029223D01*
X035289Y029220D01*
X035291Y029216D01*
X035295Y029212D01*
X035299Y029208D01*
X035304Y029205D01*
X035305Y029204D01*
X035307Y029203D01*
X035310Y029202D01*
X035314Y029201D01*
X035319Y029199D01*
X035326Y029198D01*
X035333Y029197D01*
X035341Y029196D01*
X035344D01*
X035346Y029197D01*
X035350D01*
X035353Y029197D01*
X035361Y029199D01*
X035370Y029200D01*
X035378Y029203D01*
X035386Y029207D01*
X035390Y029210D01*
X035393Y029213D01*
X035393Y029213D01*
X035394Y029213D01*
X035394Y029215D01*
X035396Y029216D01*
X035397Y029218D01*
X035398Y029220D01*
X035400Y029224D01*
X035401Y029227D01*
X035402Y029231D01*
X035404Y029236D01*
X035405Y029241D01*
X035406Y029247D01*
X035407Y029253D01*
X035408Y029260D01*
X035409Y029268D01*
Y029277D01*
Y029422D01*
X035442D01*
Y029277D01*
D02*
G37*
G36*
X035086Y029426D02*
X035089D01*
X035093Y029426D01*
X035097Y029425D01*
X035101Y029425D01*
X035111Y029423D01*
X035122Y029420D01*
X035132Y029415D01*
X035138Y029413D01*
X035143Y029410D01*
X035144Y029410D01*
X035144Y029409D01*
X035146Y029408D01*
X035148Y029407D01*
X035150Y029405D01*
X035153Y029403D01*
X035159Y029398D01*
X035166Y029391D01*
X035173Y029383D01*
X035180Y029374D01*
X035186Y029363D01*
Y029363D01*
X035187Y029362D01*
X035187Y029360D01*
X035188Y029358D01*
X035190Y029355D01*
X035191Y029352D01*
X035192Y029348D01*
X035194Y029344D01*
X035195Y029339D01*
X035196Y029334D01*
X035198Y029328D01*
X035199Y029322D01*
X035200Y029310D01*
X035201Y029296D01*
Y029295D01*
Y029294D01*
Y029292D01*
X035200Y029289D01*
Y029286D01*
X035200Y029282D01*
X035199Y029277D01*
X035199Y029273D01*
X035197Y029262D01*
X035194Y029251D01*
X035190Y029239D01*
X035188Y029233D01*
X035185Y029227D01*
Y029227D01*
X035184Y029226D01*
X035184Y029224D01*
X035182Y029222D01*
X035181Y029220D01*
X035179Y029217D01*
X035174Y029210D01*
X035168Y029203D01*
X035160Y029195D01*
X035152Y029188D01*
X035141Y029181D01*
X035141D01*
X035140Y029181D01*
X035139Y029180D01*
X035136Y029179D01*
X035134Y029178D01*
X035131Y029177D01*
X035127Y029175D01*
X035123Y029174D01*
X035119Y029172D01*
X035114Y029171D01*
X035104Y029169D01*
X035092Y029167D01*
X035080Y029166D01*
X035077D01*
X035075Y029166D01*
X035071D01*
X035068Y029167D01*
X035064Y029168D01*
X035059Y029168D01*
X035049Y029170D01*
X035038Y029173D01*
X035028Y029178D01*
X035022Y029180D01*
X035017Y029183D01*
X035016Y029184D01*
X035016Y029184D01*
X035014Y029185D01*
X035012Y029186D01*
X035010Y029188D01*
X035007Y029190D01*
X035001Y029196D01*
X034994Y029202D01*
X034987Y029210D01*
X034980Y029219D01*
X034974Y029230D01*
Y029230D01*
X034973Y029231D01*
X034973Y029233D01*
X034972Y029235D01*
X034971Y029238D01*
X034970Y029241D01*
X034968Y029245D01*
X034967Y029249D01*
X034966Y029253D01*
X034964Y029258D01*
X034962Y029269D01*
X034961Y029280D01*
X034960Y029293D01*
Y029293D01*
Y029293D01*
Y029296D01*
X034960Y029299D01*
Y029303D01*
X034961Y029308D01*
X034962Y029315D01*
X034963Y029322D01*
X034964Y029329D01*
X034966Y029336D01*
X034968Y029344D01*
X034971Y029352D01*
X034974Y029361D01*
X034978Y029369D01*
X034982Y029377D01*
X034988Y029384D01*
X034993Y029391D01*
X034994Y029391D01*
X034995Y029393D01*
X034997Y029394D01*
X035000Y029397D01*
X035003Y029399D01*
X035007Y029402D01*
X035012Y029406D01*
X035017Y029409D01*
X035023Y029412D01*
X035029Y029415D01*
X035037Y029418D01*
X035044Y029421D01*
X035053Y029423D01*
X035061Y029425D01*
X035071Y029426D01*
X035080Y029427D01*
X035084D01*
X035086Y029426D01*
D02*
G37*
G36*
X038045Y028470D02*
X038011D01*
Y028722D01*
X038045D01*
Y028470D01*
D02*
G37*
G36*
X038301D02*
X038267D01*
X038135Y028667D01*
Y028470D01*
X038103D01*
Y028722D01*
X038137D01*
X038269Y028524D01*
Y028722D01*
X038301D01*
Y028470D01*
D02*
G37*
G36*
X037404Y029435D02*
X037409Y029434D01*
X037414Y029433D01*
X037421Y029431D01*
X037428Y029429D01*
X037434Y029426D01*
X037435D01*
X037435Y029426D01*
X037437Y029425D01*
X037440Y029423D01*
X037444Y029420D01*
X037448Y029416D01*
X037453Y029412D01*
X037457Y029408D01*
X037461Y029402D01*
X037461Y029401D01*
X037462Y029400D01*
X037464Y029396D01*
X037465Y029392D01*
X037467Y029388D01*
X037469Y029382D01*
X037470Y029376D01*
X037470Y029370D01*
Y029369D01*
Y029367D01*
X037470Y029364D01*
X037469Y029360D01*
X037468Y029355D01*
X037466Y029350D01*
X037464Y029345D01*
X037461Y029340D01*
X037461Y029339D01*
X037460Y029338D01*
X037457Y029335D01*
X037455Y029332D01*
X037451Y029329D01*
X037447Y029325D01*
X037441Y029322D01*
X037435Y029319D01*
X037436D01*
X037436Y029318D01*
X037437Y029318D01*
X037439Y029318D01*
X037443Y029316D01*
X037448Y029314D01*
X037454Y029311D01*
X037460Y029307D01*
X037465Y029303D01*
X037470Y029297D01*
X037471Y029297D01*
X037472Y029294D01*
X037474Y029291D01*
X037476Y029286D01*
X037479Y029280D01*
X037481Y029273D01*
X037482Y029265D01*
X037483Y029257D01*
Y029256D01*
Y029255D01*
Y029253D01*
X037482Y029251D01*
X037482Y029248D01*
X037481Y029245D01*
X037480Y029241D01*
X037480Y029237D01*
X037477Y029229D01*
X037475Y029224D01*
X037472Y029219D01*
X037469Y029215D01*
X037466Y029210D01*
X037463Y029205D01*
X037458Y029201D01*
X037458Y029200D01*
X037457Y029200D01*
X037456Y029199D01*
X037454Y029197D01*
X037452Y029195D01*
X037449Y029194D01*
X037445Y029191D01*
X037441Y029190D01*
X037437Y029187D01*
X037433Y029185D01*
X037428Y029183D01*
X037422Y029182D01*
X037417Y029180D01*
X037410Y029179D01*
X037404Y029178D01*
X037397Y029178D01*
X037394D01*
X037392Y029178D01*
X037389Y029179D01*
X037386Y029179D01*
X037382Y029180D01*
X037378Y029180D01*
X037369Y029183D01*
X037360Y029186D01*
X037356Y029188D01*
X037351Y029191D01*
X037347Y029194D01*
X037342Y029198D01*
X037342Y029198D01*
X037341Y029199D01*
X037340Y029200D01*
X037339Y029201D01*
X037337Y029203D01*
X037336Y029206D01*
X037333Y029208D01*
X037331Y029211D01*
X037329Y029215D01*
X037327Y029219D01*
X037323Y029227D01*
X037319Y029238D01*
X037318Y029243D01*
X037318Y029249D01*
X037349Y029253D01*
Y029253D01*
X037349Y029252D01*
X037349Y029250D01*
X037350Y029249D01*
X037350Y029246D01*
X037351Y029244D01*
X037353Y029238D01*
X037355Y029232D01*
X037358Y029226D01*
X037362Y029220D01*
X037366Y029215D01*
X037367Y029214D01*
X037369Y029213D01*
X037372Y029211D01*
X037375Y029209D01*
X037380Y029207D01*
X037385Y029205D01*
X037391Y029204D01*
X037398Y029203D01*
X037400D01*
X037401Y029204D01*
X037405Y029204D01*
X037410Y029205D01*
X037416Y029207D01*
X037422Y029210D01*
X037429Y029213D01*
X037435Y029218D01*
X037435Y029219D01*
X037437Y029221D01*
X037439Y029225D01*
X037442Y029229D01*
X037445Y029234D01*
X037447Y029241D01*
X037449Y029248D01*
X037450Y029256D01*
Y029256D01*
Y029257D01*
Y029258D01*
X037449Y029259D01*
X037449Y029263D01*
X037448Y029268D01*
X037447Y029274D01*
X037444Y029280D01*
X037440Y029286D01*
X037436Y029291D01*
X037435Y029292D01*
X037433Y029293D01*
X037430Y029295D01*
X037426Y029298D01*
X037421Y029301D01*
X037415Y029303D01*
X037408Y029304D01*
X037400Y029305D01*
X037397D01*
X037394Y029305D01*
X037391Y029304D01*
X037388Y029303D01*
X037383Y029303D01*
X037378Y029302D01*
X037382Y029329D01*
X037384D01*
X037385Y029329D01*
X037390D01*
X037394Y029329D01*
X037399Y029330D01*
X037404Y029331D01*
X037410Y029333D01*
X037416Y029336D01*
X037422Y029339D01*
X037423D01*
X037423Y029339D01*
X037425Y029341D01*
X037428Y029343D01*
X037431Y029346D01*
X037433Y029351D01*
X037436Y029357D01*
X037438Y029363D01*
X037439Y029366D01*
Y029370D01*
Y029371D01*
Y029371D01*
Y029373D01*
X037438Y029376D01*
X037437Y029380D01*
X037436Y029385D01*
X037434Y029389D01*
X037431Y029394D01*
X037427Y029399D01*
X037427Y029399D01*
X037425Y029400D01*
X037422Y029402D01*
X037419Y029404D01*
X037414Y029406D01*
X037409Y029408D01*
X037404Y029409D01*
X037397Y029410D01*
X037394D01*
X037391Y029409D01*
X037386Y029408D01*
X037382Y029407D01*
X037377Y029405D01*
X037372Y029402D01*
X037367Y029399D01*
X037367Y029398D01*
X037365Y029396D01*
X037363Y029394D01*
X037361Y029390D01*
X037358Y029385D01*
X037356Y029380D01*
X037353Y029373D01*
X037352Y029365D01*
X037321Y029370D01*
Y029370D01*
X037321Y029372D01*
X037322Y029373D01*
X037322Y029375D01*
X037323Y029378D01*
X037324Y029381D01*
X037326Y029388D01*
X037330Y029396D01*
X037334Y029404D01*
X037339Y029411D01*
X037346Y029418D01*
X037347Y029419D01*
X037348Y029419D01*
X037349Y029420D01*
X037350Y029421D01*
X037352Y029422D01*
X037354Y029424D01*
X037357Y029425D01*
X037360Y029427D01*
X037368Y029430D01*
X037376Y029433D01*
X037386Y029435D01*
X037391Y029435D01*
X037400D01*
X037404Y029435D01*
D02*
G37*
G36*
X035187Y029044D02*
X035190Y029044D01*
X035194Y029044D01*
X035198Y029043D01*
X035203Y029042D01*
X035213Y029040D01*
X035224Y029037D01*
X035229Y029035D01*
X035234Y029032D01*
X035239Y029029D01*
X035245Y029026D01*
X035245Y029025D01*
X035246Y029025D01*
X035247Y029024D01*
X035249Y029022D01*
X035251Y029020D01*
X035253Y029018D01*
X035256Y029015D01*
X035259Y029012D01*
X035262Y029008D01*
X035265Y029004D01*
X035268Y028999D01*
X035271Y028995D01*
X035273Y028989D01*
X035276Y028984D01*
X035278Y028978D01*
X035281Y028971D01*
X035248Y028964D01*
Y028964D01*
X035247Y028965D01*
X035247Y028966D01*
X035246Y028968D01*
X035245Y028970D01*
X035244Y028973D01*
X035241Y028979D01*
X035238Y028986D01*
X035233Y028992D01*
X035228Y028998D01*
X035222Y029004D01*
X035221Y029004D01*
X035219Y029006D01*
X035215Y029008D01*
X035211Y029010D01*
X035205Y029012D01*
X035198Y029015D01*
X035189Y029016D01*
X035180Y029016D01*
X035177D01*
X035175Y029016D01*
X035173D01*
X035170Y029016D01*
X035163Y029015D01*
X035155Y029013D01*
X035147Y029011D01*
X035139Y029007D01*
X035131Y029002D01*
X035131D01*
X035131Y029002D01*
X035128Y029000D01*
X035125Y028997D01*
X035121Y028992D01*
X035116Y028987D01*
X035112Y028981D01*
X035108Y028973D01*
X035104Y028965D01*
Y028964D01*
X035104Y028964D01*
X035103Y028963D01*
X035103Y028961D01*
X035102Y028959D01*
X035102Y028956D01*
X035100Y028950D01*
X035099Y028943D01*
X035098Y028935D01*
X035097Y028926D01*
X035096Y028916D01*
Y028916D01*
Y028915D01*
Y028913D01*
Y028911D01*
X035097Y028908D01*
Y028905D01*
X035097Y028901D01*
X035098Y028897D01*
X035099Y028889D01*
X035100Y028879D01*
X035103Y028870D01*
X035106Y028860D01*
Y028860D01*
X035106Y028859D01*
X035107Y028858D01*
X035107Y028856D01*
X035110Y028852D01*
X035113Y028847D01*
X035117Y028841D01*
X035122Y028835D01*
X035128Y028829D01*
X035135Y028824D01*
X035135D01*
X035136Y028824D01*
X035137Y028823D01*
X035138Y028822D01*
X035140Y028822D01*
X035142Y028821D01*
X035147Y028818D01*
X035154Y028816D01*
X035161Y028814D01*
X035169Y028813D01*
X035178Y028813D01*
X035180D01*
X035182Y028813D01*
X035185D01*
X035187Y028813D01*
X035194Y028815D01*
X035202Y028817D01*
X035209Y028820D01*
X035217Y028824D01*
X035221Y028826D01*
X035225Y028829D01*
X035225Y028829D01*
X035226Y028829D01*
X035227Y028830D01*
X035228Y028832D01*
X035230Y028833D01*
X035231Y028836D01*
X035234Y028838D01*
X035235Y028841D01*
X035238Y028844D01*
X035240Y028848D01*
X035242Y028851D01*
X035245Y028856D01*
X035246Y028860D01*
X035248Y028865D01*
X035250Y028871D01*
X035251Y028877D01*
X035285Y028868D01*
Y028868D01*
X035285Y028866D01*
X035284Y028864D01*
X035283Y028861D01*
X035282Y028858D01*
X035280Y028854D01*
X035278Y028850D01*
X035276Y028845D01*
X035271Y028835D01*
X035265Y028825D01*
X035261Y028820D01*
X035257Y028814D01*
X035252Y028810D01*
X035247Y028806D01*
X035247Y028805D01*
X035246Y028805D01*
X035244Y028804D01*
X035242Y028802D01*
X035239Y028801D01*
X035237Y028799D01*
X035233Y028797D01*
X035229Y028795D01*
X035224Y028793D01*
X035219Y028791D01*
X035213Y028789D01*
X035207Y028787D01*
X035201Y028786D01*
X035195Y028785D01*
X035188Y028785D01*
X035180Y028784D01*
X035176D01*
X035174Y028785D01*
X035170D01*
X035166Y028785D01*
X035162Y028786D01*
X035157Y028786D01*
X035146Y028788D01*
X035135Y028791D01*
X035124Y028795D01*
X035119Y028798D01*
X035114Y028801D01*
X035114Y028801D01*
X035113Y028801D01*
X035112Y028802D01*
X035110Y028804D01*
X035108Y028805D01*
X035106Y028808D01*
X035103Y028810D01*
X035100Y028813D01*
X035097Y028816D01*
X035094Y028820D01*
X035087Y028828D01*
X035081Y028838D01*
X035075Y028849D01*
Y028849D01*
X035075Y028850D01*
X035074Y028852D01*
X035073Y028854D01*
X035072Y028857D01*
X035071Y028861D01*
X035070Y028865D01*
X035069Y028869D01*
X035068Y028874D01*
X035066Y028879D01*
X035064Y028891D01*
X035063Y028903D01*
X035062Y028916D01*
Y028917D01*
Y028918D01*
Y028920D01*
X035063Y028923D01*
Y028927D01*
X035063Y028930D01*
X035063Y028935D01*
X035064Y028940D01*
X035066Y028950D01*
X035068Y028962D01*
X035072Y028973D01*
X035077Y028985D01*
X035077Y028985D01*
X035078Y028986D01*
X035079Y028988D01*
X035080Y028990D01*
X035082Y028992D01*
X035083Y028995D01*
X035088Y029002D01*
X035094Y029009D01*
X035102Y029016D01*
X035110Y029023D01*
X035120Y029030D01*
X035120Y029030D01*
X035121Y029030D01*
X035123Y029031D01*
X035124Y029032D01*
X035127Y029033D01*
X035130Y029034D01*
X035134Y029036D01*
X035138Y029037D01*
X035142Y029039D01*
X035147Y029040D01*
X035157Y029042D01*
X035169Y029044D01*
X035181Y029045D01*
X035185D01*
X035187Y029044D01*
D02*
G37*
G36*
X036544Y029147D02*
X036513D01*
Y029344D01*
X036513Y029343D01*
X036511Y029342D01*
X036509Y029340D01*
X036505Y029337D01*
X036501Y029334D01*
X036496Y029330D01*
X036490Y029326D01*
X036484Y029322D01*
X036483D01*
X036483Y029322D01*
X036481Y029320D01*
X036477Y029319D01*
X036473Y029316D01*
X036468Y029314D01*
X036462Y029311D01*
X036457Y029309D01*
X036451Y029307D01*
Y029336D01*
X036452D01*
X036452Y029337D01*
X036454Y029338D01*
X036456Y029339D01*
X036458Y029340D01*
X036460Y029341D01*
X036466Y029345D01*
X036474Y029349D01*
X036481Y029354D01*
X036489Y029360D01*
X036496Y029366D01*
X036497Y029366D01*
X036497Y029367D01*
X036498Y029368D01*
X036500Y029369D01*
X036503Y029373D01*
X036507Y029377D01*
X036512Y029382D01*
X036516Y029388D01*
X036520Y029394D01*
X036524Y029400D01*
X036544D01*
Y029147D01*
D02*
G37*
G36*
X036301Y029403D02*
X036305Y029402D01*
X036309Y029402D01*
X036313Y029402D01*
X036317Y029401D01*
X036327Y029398D01*
X036338Y029395D01*
X036343Y029393D01*
X036349Y029390D01*
X036354Y029387D01*
X036359Y029384D01*
X036359Y029383D01*
X036360Y029383D01*
X036361Y029382D01*
X036363Y029380D01*
X036365Y029378D01*
X036367Y029376D01*
X036370Y029373D01*
X036373Y029370D01*
X036376Y029366D01*
X036379Y029362D01*
X036382Y029358D01*
X036385Y029353D01*
X036388Y029347D01*
X036390Y029342D01*
X036393Y029336D01*
X036395Y029330D01*
X036362Y029322D01*
Y029322D01*
X036362Y029323D01*
X036361Y029324D01*
X036360Y029326D01*
X036359Y029328D01*
X036358Y029331D01*
X036355Y029337D01*
X036352Y029344D01*
X036347Y029350D01*
X036342Y029357D01*
X036336Y029362D01*
X036335Y029363D01*
X036333Y029364D01*
X036330Y029366D01*
X036325Y029369D01*
X036319Y029371D01*
X036312Y029373D01*
X036303Y029374D01*
X036294Y029375D01*
X036291D01*
X036290Y029374D01*
X036287D01*
X036284Y029374D01*
X036277Y029373D01*
X036270Y029371D01*
X036262Y029369D01*
X036253Y029365D01*
X036246Y029361D01*
X036245D01*
X036245Y029360D01*
X036242Y029358D01*
X036239Y029355D01*
X036235Y029351D01*
X036230Y029345D01*
X036226Y029339D01*
X036222Y029331D01*
X036218Y029323D01*
Y029323D01*
X036218Y029322D01*
X036218Y029321D01*
X036217Y029319D01*
X036216Y029317D01*
X036216Y029314D01*
X036215Y029308D01*
X036213Y029301D01*
X036212Y029293D01*
X036211Y029284D01*
X036211Y029275D01*
Y029274D01*
Y029273D01*
Y029271D01*
Y029269D01*
X036211Y029267D01*
Y029263D01*
X036211Y029260D01*
X036212Y029256D01*
X036213Y029247D01*
X036215Y029237D01*
X036217Y029228D01*
X036220Y029219D01*
Y029218D01*
X036220Y029217D01*
X036221Y029216D01*
X036222Y029215D01*
X036224Y029210D01*
X036227Y029205D01*
X036231Y029199D01*
X036236Y029193D01*
X036242Y029188D01*
X036249Y029183D01*
X036249D01*
X036250Y029182D01*
X036251Y029181D01*
X036252Y029181D01*
X036254Y029180D01*
X036256Y029179D01*
X036262Y029177D01*
X036268Y029175D01*
X036275Y029173D01*
X036283Y029171D01*
X036292Y029171D01*
X036294D01*
X036297Y029171D01*
X036299D01*
X036302Y029172D01*
X036308Y029173D01*
X036316Y029175D01*
X036323Y029178D01*
X036331Y029182D01*
X036335Y029184D01*
X036339Y029187D01*
X036339Y029187D01*
X036340Y029188D01*
X036341Y029189D01*
X036342Y029190D01*
X036344Y029192D01*
X036346Y029194D01*
X036348Y029196D01*
X036350Y029199D01*
X036352Y029202D01*
X036354Y029206D01*
X036357Y029209D01*
X036359Y029214D01*
X036361Y029219D01*
X036362Y029224D01*
X036364Y029229D01*
X036366Y029235D01*
X036399Y029227D01*
Y029226D01*
X036399Y029225D01*
X036398Y029223D01*
X036397Y029220D01*
X036396Y029216D01*
X036394Y029212D01*
X036393Y029208D01*
X036390Y029203D01*
X036385Y029193D01*
X036379Y029183D01*
X036375Y029178D01*
X036371Y029173D01*
X036366Y029168D01*
X036361Y029164D01*
X036361Y029164D01*
X036360Y029163D01*
X036358Y029162D01*
X036357Y029161D01*
X036354Y029159D01*
X036351Y029157D01*
X036347Y029155D01*
X036343Y029153D01*
X036338Y029151D01*
X036333Y029149D01*
X036327Y029148D01*
X036322Y029146D01*
X036315Y029144D01*
X036309Y029144D01*
X036302Y029143D01*
X036295Y029142D01*
X036291D01*
X036288Y029143D01*
X036284D01*
X036280Y029143D01*
X036276Y029144D01*
X036271Y029145D01*
X036260Y029146D01*
X036250Y029149D01*
X036239Y029153D01*
X036234Y029156D01*
X036228Y029159D01*
X036228Y029159D01*
X036227Y029160D01*
X036226Y029161D01*
X036224Y029162D01*
X036222Y029164D01*
X036220Y029166D01*
X036217Y029168D01*
X036214Y029171D01*
X036211Y029175D01*
X036208Y029178D01*
X036201Y029186D01*
X036195Y029196D01*
X036189Y029207D01*
Y029207D01*
X036189Y029208D01*
X036188Y029210D01*
X036187Y029212D01*
X036187Y029215D01*
X036185Y029219D01*
X036184Y029223D01*
X036183Y029227D01*
X036182Y029232D01*
X036180Y029237D01*
X036179Y029249D01*
X036177Y029262D01*
X036176Y029275D01*
Y029275D01*
Y029276D01*
Y029279D01*
X036177Y029281D01*
Y029285D01*
X036177Y029288D01*
X036177Y029293D01*
X036178Y029298D01*
X036180Y029308D01*
X036183Y029320D01*
X036186Y029332D01*
X036191Y029343D01*
X036192Y029343D01*
X036192Y029344D01*
X036193Y029346D01*
X036194Y029348D01*
X036196Y029350D01*
X036197Y029353D01*
X036202Y029360D01*
X036208Y029367D01*
X036216Y029374D01*
X036224Y029382D01*
X036234Y029388D01*
X036234Y029388D01*
X036235Y029389D01*
X036237Y029389D01*
X036239Y029390D01*
X036242Y029391D01*
X036244Y029393D01*
X036248Y029394D01*
X036252Y029395D01*
X036256Y029397D01*
X036261Y029398D01*
X036271Y029401D01*
X036283Y029402D01*
X036295Y029403D01*
X036299D01*
X036301Y029403D01*
D02*
G37*
G36*
X037191Y029438D02*
X037194Y029438D01*
X037198Y029437D01*
X037202Y029437D01*
X037207Y029436D01*
X037217Y029434D01*
X037228Y029431D01*
X037233Y029428D01*
X037238Y029426D01*
X037243Y029423D01*
X037249Y029419D01*
X037249Y029419D01*
X037250Y029419D01*
X037251Y029417D01*
X037253Y029416D01*
X037255Y029414D01*
X037257Y029411D01*
X037260Y029408D01*
X037263Y029405D01*
X037266Y029402D01*
X037269Y029397D01*
X037272Y029393D01*
X037275Y029388D01*
X037277Y029383D01*
X037280Y029377D01*
X037282Y029372D01*
X037285Y029365D01*
X037252Y029357D01*
Y029358D01*
X037251Y029358D01*
X037251Y029360D01*
X037250Y029362D01*
X037249Y029364D01*
X037248Y029367D01*
X037245Y029373D01*
X037242Y029379D01*
X037237Y029386D01*
X037232Y029392D01*
X037226Y029397D01*
X037225Y029398D01*
X037223Y029400D01*
X037219Y029401D01*
X037215Y029404D01*
X037208Y029406D01*
X037202Y029408D01*
X037193Y029410D01*
X037184Y029410D01*
X037181D01*
X037179Y029410D01*
X037177D01*
X037174Y029409D01*
X037167Y029408D01*
X037159Y029407D01*
X037151Y029404D01*
X037143Y029401D01*
X037135Y029396D01*
X037135D01*
X037135Y029395D01*
X037132Y029393D01*
X037129Y029390D01*
X037125Y029386D01*
X037120Y029381D01*
X037116Y029374D01*
X037112Y029367D01*
X037108Y029358D01*
Y029358D01*
X037108Y029357D01*
X037107Y029356D01*
X037107Y029354D01*
X037106Y029352D01*
X037105Y029350D01*
X037104Y029344D01*
X037103Y029336D01*
X037101Y029328D01*
X037101Y029320D01*
X037100Y029310D01*
Y029310D01*
Y029309D01*
Y029307D01*
Y029305D01*
X037101Y029302D01*
Y029299D01*
X037101Y029295D01*
X037101Y029291D01*
X037103Y029282D01*
X037104Y029273D01*
X037107Y029263D01*
X037109Y029254D01*
Y029254D01*
X037110Y029253D01*
X037111Y029252D01*
X037111Y029250D01*
X037113Y029246D01*
X037117Y029241D01*
X037121Y029235D01*
X037126Y029229D01*
X037132Y029223D01*
X037139Y029218D01*
X037139D01*
X037140Y029218D01*
X037141Y029217D01*
X037142Y029216D01*
X037144Y029215D01*
X037146Y029214D01*
X037151Y029212D01*
X037158Y029210D01*
X037165Y029208D01*
X037173Y029207D01*
X037182Y029206D01*
X037184D01*
X037186Y029207D01*
X037189D01*
X037191Y029207D01*
X037198Y029208D01*
X037206Y029210D01*
X037213Y029213D01*
X037221Y029217D01*
X037225Y029219D01*
X037229Y029222D01*
X037229Y029223D01*
X037230Y029223D01*
X037231Y029224D01*
X037232Y029225D01*
X037234Y029227D01*
X037235Y029229D01*
X037238Y029231D01*
X037239Y029234D01*
X037242Y029238D01*
X037244Y029241D01*
X037246Y029245D01*
X037249Y029249D01*
X037250Y029254D01*
X037252Y029259D01*
X037254Y029265D01*
X037255Y029270D01*
X037289Y029262D01*
Y029262D01*
X037289Y029260D01*
X037288Y029258D01*
X037287Y029255D01*
X037286Y029252D01*
X037284Y029248D01*
X037282Y029243D01*
X037280Y029239D01*
X037275Y029229D01*
X037269Y029218D01*
X037265Y029213D01*
X037261Y029208D01*
X037256Y029204D01*
X037251Y029199D01*
X037251Y029199D01*
X037250Y029198D01*
X037248Y029198D01*
X037246Y029196D01*
X037243Y029194D01*
X037241Y029192D01*
X037236Y029191D01*
X037232Y029189D01*
X037228Y029187D01*
X037223Y029185D01*
X037217Y029183D01*
X037211Y029181D01*
X037205Y029180D01*
X037199Y029179D01*
X037192Y029178D01*
X037184Y029178D01*
X037180D01*
X037178Y029178D01*
X037174D01*
X037170Y029179D01*
X037166Y029179D01*
X037161Y029180D01*
X037150Y029182D01*
X037139Y029185D01*
X037128Y029189D01*
X037123Y029191D01*
X037118Y029194D01*
X037118Y029195D01*
X037117Y029195D01*
X037116Y029196D01*
X037114Y029198D01*
X037112Y029199D01*
X037109Y029201D01*
X037107Y029204D01*
X037104Y029207D01*
X037101Y029210D01*
X037097Y029213D01*
X037091Y029222D01*
X037085Y029231D01*
X037079Y029242D01*
Y029243D01*
X037079Y029244D01*
X037078Y029246D01*
X037077Y029248D01*
X037076Y029251D01*
X037075Y029254D01*
X037074Y029258D01*
X037073Y029263D01*
X037072Y029267D01*
X037070Y029273D01*
X037068Y029284D01*
X037067Y029297D01*
X037066Y029310D01*
Y029310D01*
Y029312D01*
Y029314D01*
X037067Y029317D01*
Y029320D01*
X037067Y029324D01*
X037067Y029329D01*
X037068Y029333D01*
X037070Y029344D01*
X037072Y029356D01*
X037076Y029367D01*
X037081Y029378D01*
X037081Y029379D01*
X037082Y029380D01*
X037083Y029381D01*
X037084Y029383D01*
X037085Y029386D01*
X037087Y029389D01*
X037092Y029395D01*
X037098Y029402D01*
X037105Y029410D01*
X037114Y029417D01*
X037124Y029423D01*
X037124Y029424D01*
X037125Y029424D01*
X037127Y029425D01*
X037128Y029426D01*
X037131Y029427D01*
X037134Y029428D01*
X037138Y029429D01*
X037142Y029431D01*
X037146Y029432D01*
X037151Y029434D01*
X037161Y029436D01*
X037173Y029438D01*
X037185Y029439D01*
X037188D01*
X037191Y029438D01*
D02*
G37*
G36*
X035403Y029041D02*
X035406Y029041D01*
X035409Y029040D01*
X035413Y029040D01*
X035417Y029039D01*
X035427Y029036D01*
X035436Y029033D01*
X035441Y029031D01*
X035446Y029028D01*
X035450Y029025D01*
X035454Y029021D01*
X035455Y029021D01*
X035455Y029020D01*
X035456Y029019D01*
X035458Y029018D01*
X035459Y029016D01*
X035461Y029013D01*
X035463Y029011D01*
X035465Y029007D01*
X035469Y029000D01*
X035472Y028992D01*
X035474Y028987D01*
X035475Y028982D01*
X035475Y028977D01*
X035476Y028972D01*
Y028971D01*
Y028969D01*
X035475Y028966D01*
X035475Y028962D01*
X035474Y028958D01*
X035473Y028953D01*
X035471Y028947D01*
X035469Y028942D01*
X035469Y028941D01*
X035468Y028939D01*
X035467Y028936D01*
X035464Y028932D01*
X035462Y028928D01*
X035458Y028923D01*
X035454Y028917D01*
X035448Y028911D01*
X035448Y028910D01*
X035446Y028908D01*
X035444Y028906D01*
X035442Y028904D01*
X035440Y028902D01*
X035437Y028899D01*
X035434Y028896D01*
X035431Y028893D01*
X035427Y028889D01*
X035423Y028885D01*
X035418Y028881D01*
X035413Y028877D01*
X035407Y028872D01*
X035401Y028867D01*
X035401Y028866D01*
X035400Y028866D01*
X035399Y028865D01*
X035397Y028863D01*
X035395Y028861D01*
X035392Y028859D01*
X035386Y028854D01*
X035380Y028849D01*
X035374Y028843D01*
X035369Y028838D01*
X035367Y028837D01*
X035365Y028835D01*
X035365Y028834D01*
X035364Y028833D01*
X035362Y028832D01*
X035360Y028830D01*
X035359Y028827D01*
X035356Y028825D01*
X035352Y028818D01*
X035476D01*
Y028789D01*
X035309D01*
Y028789D01*
Y028790D01*
Y028793D01*
X035309Y028795D01*
X035310Y028799D01*
X035310Y028802D01*
X035311Y028806D01*
X035313Y028810D01*
Y028810D01*
X035313Y028811D01*
X035314Y028813D01*
X035315Y028816D01*
X035317Y028821D01*
X035320Y028826D01*
X035324Y028832D01*
X035328Y028837D01*
X035333Y028844D01*
Y028844D01*
X035334Y028844D01*
X035336Y028846D01*
X035339Y028850D01*
X035344Y028854D01*
X035349Y028860D01*
X035356Y028866D01*
X035364Y028874D01*
X035373Y028881D01*
X035374Y028882D01*
X035375Y028883D01*
X035377Y028885D01*
X035380Y028887D01*
X035383Y028890D01*
X035387Y028893D01*
X035391Y028897D01*
X035396Y028901D01*
X035405Y028909D01*
X035414Y028918D01*
X035419Y028923D01*
X035423Y028927D01*
X035426Y028931D01*
X035429Y028935D01*
Y028935D01*
X035430Y028936D01*
X035431Y028937D01*
X035431Y028938D01*
X035434Y028942D01*
X035437Y028947D01*
X035439Y028953D01*
X035442Y028959D01*
X035443Y028966D01*
X035444Y028972D01*
Y028973D01*
Y028973D01*
X035444Y028975D01*
X035443Y028979D01*
X035442Y028983D01*
X035441Y028988D01*
X035438Y028993D01*
X035435Y028998D01*
X035431Y029003D01*
X035430Y029004D01*
X035428Y029006D01*
X035425Y029007D01*
X035421Y029010D01*
X035416Y029012D01*
X035411Y029014D01*
X035404Y029016D01*
X035396Y029016D01*
X035394D01*
X035392Y029016D01*
X035388Y029015D01*
X035383Y029014D01*
X035377Y029013D01*
X035371Y029010D01*
X035365Y029007D01*
X035360Y029003D01*
X035359Y029002D01*
X035358Y029000D01*
X035356Y028997D01*
X035353Y028993D01*
X035351Y028988D01*
X035349Y028981D01*
X035347Y028974D01*
X035346Y028965D01*
X035315Y028969D01*
Y028969D01*
X035315Y028970D01*
Y028972D01*
X035316Y028975D01*
X035316Y028977D01*
X035317Y028981D01*
X035318Y028985D01*
X035319Y028989D01*
X035322Y028998D01*
X035326Y029006D01*
X035329Y029011D01*
X035332Y029015D01*
X035336Y029019D01*
X035339Y029023D01*
X035340Y029023D01*
X035340Y029023D01*
X035341Y029024D01*
X035343Y029026D01*
X035345Y029027D01*
X035348Y029028D01*
X035351Y029030D01*
X035354Y029032D01*
X035359Y029034D01*
X035363Y029036D01*
X035368Y029037D01*
X035373Y029039D01*
X035378Y029040D01*
X035384Y029041D01*
X035390Y029041D01*
X035397Y029042D01*
X035400D01*
X035403Y029041D01*
D02*
G37*
%LPC*%
G36*
X035080Y029398D02*
X035077D01*
X035075Y029398D01*
X035071Y029397D01*
X035068Y029397D01*
X035064Y029396D01*
X035060Y029395D01*
X035050Y029392D01*
X035045Y029390D01*
X035040Y029388D01*
X035034Y029385D01*
X035029Y029382D01*
X035024Y029378D01*
X035020Y029374D01*
X035019Y029373D01*
X035018Y029372D01*
X035017Y029371D01*
X035016Y029369D01*
X035014Y029366D01*
X035012Y029363D01*
X035009Y029359D01*
X035007Y029354D01*
X035005Y029349D01*
X035002Y029343D01*
X035000Y029336D01*
X034998Y029329D01*
X034996Y029321D01*
X034995Y029312D01*
X034994Y029303D01*
X034994Y029292D01*
Y029292D01*
Y029291D01*
Y029288D01*
X034994Y029285D01*
X034995Y029281D01*
X034996Y029277D01*
X034996Y029272D01*
X034997Y029267D01*
X035000Y029255D01*
X035002Y029249D01*
X035004Y029243D01*
X035007Y029237D01*
X035010Y029231D01*
X035014Y029226D01*
X035018Y029221D01*
X035019Y029220D01*
X035020Y029220D01*
X035021Y029218D01*
X035023Y029217D01*
X035025Y029215D01*
X035028Y029212D01*
X035032Y029210D01*
X035035Y029208D01*
X035040Y029205D01*
X035044Y029203D01*
X035049Y029201D01*
X035055Y029199D01*
X035061Y029197D01*
X035066Y029196D01*
X035073Y029195D01*
X035080Y029195D01*
X035082D01*
X035084Y029195D01*
X035086D01*
X035089Y029195D01*
X035093Y029196D01*
X035097Y029197D01*
X035102Y029198D01*
X035107Y029199D01*
X035112Y029201D01*
X035117Y029203D01*
X035122Y029205D01*
X035127Y029209D01*
X035132Y029212D01*
X035137Y029216D01*
X035142Y029221D01*
X035143Y029221D01*
X035143Y029222D01*
X035144Y029224D01*
X035146Y029226D01*
X035148Y029228D01*
X035150Y029232D01*
X035152Y029236D01*
X035155Y029240D01*
X035157Y029245D01*
X035159Y029251D01*
X035161Y029257D01*
X035163Y029264D01*
X035164Y029271D01*
X035166Y029279D01*
X035166Y029287D01*
X035167Y029296D01*
Y029296D01*
Y029298D01*
Y029299D01*
Y029301D01*
X035166Y029304D01*
Y029307D01*
X035166Y029310D01*
X035165Y029314D01*
X035164Y029323D01*
X035162Y029331D01*
X035160Y029341D01*
X035156Y029350D01*
Y029350D01*
X035156Y029351D01*
X035155Y029352D01*
X035154Y029353D01*
X035152Y029358D01*
X035148Y029363D01*
X035144Y029368D01*
X035139Y029374D01*
X035132Y029380D01*
X035125Y029385D01*
X035125D01*
X035125Y029386D01*
X035124Y029386D01*
X035122Y029387D01*
X035120Y029388D01*
X035118Y029389D01*
X035112Y029392D01*
X035106Y029394D01*
X035098Y029396D01*
X035089Y029398D01*
X035080Y029398D01*
D02*
G37*
%LPD*%
D21*
X035120Y028249D02*
G03*
X035120Y028249I-000020J000000D01*
G01*
X038320Y029659D02*
G03*
X038320Y029659I-000020J000000D01*
G01*
D22*
X035503Y029139D02*
X036369D01*
Y028686D02*
Y029139D01*
X035503Y028686D02*
Y029139D01*
Y028686D02*
X036369D01*
X036330D02*
X037196D01*
X036330D02*
Y029139D01*
X037196Y028686D02*
Y029139D01*
X036330D02*
X037196D01*
D23*
X037857Y029029D02*
X038015D01*
X037857Y029580D02*
X038015D01*
M02*
